<svg width="30" height="24" viewBox="0 0 30 24" fill="none" xmlns="http://www.w3.org/2000/svg">
<path d="M16.875 3.375C16.875 4.41047 16.0359 5.25 15 5.25C13.9641 5.25 13.125 4.41047 13.125 3.375C13.125 2.33953 13.9641 1.5 15 1.5C16.0359 1.5 16.875 2.33953 16.875 3.375ZM4.875 7.875C4.875 6.83906 5.71406 6 6.75 6C7.78594 6 8.625 6.83906 8.625 7.875C8.625 8.91094 7.78594 9.75 6.75 9.75C5.71406 9.75 4.875 8.91094 4.875 7.875ZM28.5 19.5C29.3297 19.5 30 20.1703 30 21C30 21.8297 29.3297 22.5 28.5 22.5H1.5C0.671719 22.5 0 21.8297 0 21C0 20.1703 0.671719 19.5 1.5 19.5H28.5ZM21.375 7.875C21.375 6.83906 22.2141 6 23.25 6C24.2859 6 25.125 6.83906 25.125 7.875C25.125 8.91094 24.2859 9.75 23.25 9.75C22.2141 9.75 21.375 8.91094 21.375 7.875ZM9.375 16.5C9.375 17.3297 8.70469 18 7.875 18H5.625C4.79531 18 4.125 17.3297 4.125 16.5V14.6953L2.86547 17.0344C2.57109 17.5781 1.88859 17.7844 1.34156 17.4891C0.794531 17.1938 0.589688 16.5141 0.884531 15.9656L2.66016 12.6703C3.37922 11.3344 4.77656 10.5 6.29062 10.5H7.20938C7.97344 10.5 8.70469 10.7109 9.3375 11.0906L10.9078 8.17031C11.6297 6.83438 13.0266 6 14.5406 6H15.4594C16.9734 6 18.3703 6.83438 19.0922 8.17031L20.6625 11.0906C21.2953 10.7109 22.0266 10.5 22.7906 10.5H23.7094C25.2234 10.5 26.6203 11.3344 27.3422 12.6703L29.1141 15.9656C29.4094 16.5141 29.2031 17.1938 28.6594 17.4891C28.1109 17.7844 27.4313 17.5781 27.1359 17.0344L25.875 14.6953V16.5C25.875 17.3297 25.2047 18 24.375 18H22.125C21.2953 18 20.625 17.3297 20.625 16.5V14.6953L19.3641 17.0344C19.0688 17.5781 18.3891 17.7844 17.8406 17.4891C17.2547 17.1938 17.0906 16.5141 17.3859 15.9656L19.0875 12.8016C19.0078 12.7266 18.9375 12.6375 18.8859 12.5344L17.625 10.1953V12.75C17.625 13.5797 16.9547 14.25 16.125 14.25H13.8328C13.0453 14.25 12.3328 13.5797 12.3328 12.75V10.1953L11.1141 12.5344C11.0203 12.6375 10.9922 12.7266 10.9125 12.8016L12.6141 15.9656C12.9094 16.5141 12.7031 17.1938 12.1594 17.4891C11.6109 17.7844 10.9312 17.5781 10.6359 17.0344L9.33281 14.6953L9.375 16.5Z" fill="#1976D2"/>
</svg>
