<svg width="27" height="24" viewBox="0 0 27 24" fill="none" xmlns="http://www.w3.org/2000/svg">
<g clip-path="url(#clip0_5_20)">
<path d="M23.2547 1.13625C23.4937 0.332484 24.3094 -0.156141 25.1156 0.0447652C25.9172 0.245718 26.4047 1.06031 26.2031 1.86375L25.7953 3.49828C25.2797 5.55937 23.9109 7.22813 22.125 8.17031V22.5C22.125 23.3297 21.4547 24 20.625 24C19.7953 24 19.125 23.3297 19.125 22.5V16.5H18.375V22.5C18.375 23.3297 17.7047 24 16.875 24C16.0453 24 15.375 23.3297 15.375 22.5V8.17031C13.5891 7.22813 12.2203 5.55937 11.7047 3.49828L11.2547 1.86375C11.0953 1.06031 11.5828 0.245718 12.3844 0.0447652C13.1906 -0.156094 14.0063 0.332484 14.2031 1.13625L14.6156 2.77031C15.0891 4.66828 16.7953 5.95781 18.75 5.95781C20.7047 5.95781 22.4109 4.66828 22.8844 2.77031L23.2547 1.13625ZM16.5 2.20781C16.5 1.00734 17.5078 -4.01982e-07 18.75 -4.01982e-07C19.9922 -4.01982e-07 21 1.00734 21 2.20781C21 3.49266 19.9922 4.45781 18.75 4.45781C17.5078 4.45781 16.5 3.49266 16.5 2.20781ZM1.50047 2.25C1.50047 1.00734 2.50781 -4.01982e-07 3.75047 -4.01982e-07C4.99219 -4.01982e-07 6 1.00734 6 2.25C6 3.49266 4.99219 4.5 3.75047 4.5C2.50781 4.5 1.50047 3.49266 1.50047 2.25ZM4.90781 6C6.19219 6 7.3875 6.65625 8.07187 7.73906L9.825 10.5H11.25C12.0797 10.5 12.75 11.1703 12.75 12C12.75 12.8297 12.0797 13.5 11.25 13.5H9C8.48438 13.5 8.01094 13.2375 7.69219 12.8016L7.125 11.8453V22.5C7.125 23.3297 6.45469 24 5.625 24C4.79531 24 4.125 23.3297 4.125 22.5V16.5H3.375V22.5C3.375 23.3297 2.70375 24 1.875 24C1.04672 24 0.375234 23.3297 0.375234 22.5V13.5281L0.375 13.4578V8.95781C0.375 7.34531 1.71797 5.95781 3.375 5.95781L4.90781 6Z" fill="#1976D2"/>
</g>
<defs>
<clipPath id="clip0_5_20">
<rect width="27" height="24" fill="white"/>
</clipPath>
</defs>
</svg>
